<?xml version="1.0" encoding="iso-8859-1"?>
<!-- Generator: Adobe Illustrator 18.0.0, SVG Export Plug-In . SVG Version: 6.00 Build 0)  -->
<!DOCTYPE svg PUBLIC "-//W3C//DTD SVG 1.1//EN" "http://www.w3.org/Graphics/SVG/1.1/DTD/svg11.dtd">
<svg version="1.1" id="Capa_1" xmlns="http://www.w3.org/2000/svg" xmlns:xlink="http://www.w3.org/1999/xlink" x="0px" y="0px"
	 viewBox="0 0 470.082 470.082" style="enable-background:new 0 0 470.082 470.082;" xml:space="preserve">
<g>
	<path d="M81.803,191.026l1.593-1.593c3.905-3.905,3.904-10.237-0.001-14.143c-3.905-3.904-10.237-3.904-14.143,0.002
		l-19.093,19.096c-3.904,3.904-3.904,10.235,0,14.141l19.093,19.096c1.953,1.953,4.513,2.93,7.072,2.93
		c2.559,0,5.118-0.977,7.07-2.929c3.905-3.905,3.906-10.236,0.001-14.142l-1.281-1.282C98.462,218.95,110,235.056,110,253.812
		c0,24.812-20.188,45-45,45c-24.813,0-45-20.188-45-45c0-5.523-4.477-10-10-10c-5.523,0-10,4.477-10,10c0,35.841,29.158,65,65,65
		c35.841,0,65-29.159,65-65C130,223.78,109.523,198.452,81.803,191.026z"/>
	<path d="M443.282,172.41l-50.033-69.86l-0.028-0.04l-0.029-0.04c-8.252-11.403-21.722-18.211-36.032-18.211
		c-9.59,0-18.743,2.956-26.472,8.548c-4.074,2.948-7.685,6.639-10.641,10.797c-6.999-4.384-15.179-6.811-23.621-6.812
		c-9.391,0-18.385,2.917-26.012,8.436c-4.988,3.61-9.057,7.995-12.14,12.829c-6.013-2.939-12.689-4.534-19.544-4.534
		c-9.408-0.001-18.418,2.92-26.054,8.446c-3.436,2.486-6.454,5.4-9,8.655l-7.573-10.48l-12.701-17.573
		c-2.297-3.177-3.732-5.161-4.701-6.47l0.008-0.006c-7.304-10.729-19.279-16.882-32.854-16.883c-9.705,0-19.459,3.19-27.466,8.985
		c-19.865,14.374-24.332,42.231-9.956,62.099c0,0,59.881,82.749,93.196,128.788c-2.421-0.351-4.869-0.527-7.288-0.528
		c-10.954,0-21.539,3.659-29.806,10.304c-8.73,7.017-14.53,17.076-16.333,28.325c-3.791,23.644,10.274,45.561,35.034,54.696
		c5.635,2.331,47.771,18.987,100.757,18.987c46.55,0,87.573-12.606,121.931-37.469c40.805-29.527,62.355-63.507,64.055-100.995
		C471.18,225.886,461.949,198.226,443.282,172.41z M394.199,337.198c-35.784,25.895-75.451,33.671-110.206,33.671
		c-52.301,0-93.47-17.618-93.47-17.618c-15.112-5.434-24.978-17.905-22.573-32.9c2.139-13.347,13.371-21.794,26.39-21.794
		c1.606,0,3.242,0.129,4.89,0.394c0,0,19.413,3.112,29.828,4.782c1.378,0.221,2.599,0.319,3.678,0.319
		c7.536,0,8.155-4.826,6.82-6.671c-1.074-1.484-114.92-158.809-114.92-158.809c-7.923-10.949-5.471-26.249,5.479-34.172
		c4.624-3.347,10.285-5.188,15.739-5.188c6.395,0,12.507,2.532,16.323,8.139c0.033,0.031,61.423,84.988,74.366,102.896
		c0.026,0.038,0.041,0.08,0.068,0.117l5.052,6.981c0.779,1.077,1.996,1.648,3.231,1.648c0.81,0,1.628-0.246,2.334-0.757
		c1.782-1.29,2.182-3.781,0.892-5.564l-29.427-40.664c-7.637-10.925-5.131-25.995,5.71-33.839c4.336-3.139,9.354-4.649,14.326-4.648
		c7.583,0,15.061,3.514,19.847,10.127l29.75,41.08c0.768,1.06,1.967,1.624,3.183,1.624c0.798,0,1.603-0.242,2.298-0.745
		c1.755-1.27,2.148-3.724,0.877-5.48l-19.946-27.551c-7.214-9.969-2.563-23.936,7.401-31.146c4.329-3.133,9.329-4.639,14.285-4.639
		c7.58,0.001,15.056,3.526,19.847,10.147l19.308,26.683c0.747,1.032,1.914,1.58,3.098,1.58c0.776,0,1.56-0.235,2.236-0.725
		c1.708-1.236,1.545-4.463,0.308-6.172l-6.674-9.199c-6.56-9.065-1.78-23.115,7.867-30.097c4.416-3.196,9.605-4.751,14.746-4.751
		c7.603,0,15.102,3.404,19.83,9.936l50.052,69.887C451.556,217.958,474.694,278.948,394.199,337.198z"/>
</g>
<g>
</g>
<g>
</g>
<g>
</g>
<g>
</g>
<g>
</g>
<g>
</g>
<g>
</g>
<g>
</g>
<g>
</g>
<g>
</g>
<g>
</g>
<g>
</g>
<g>
</g>
<g>
</g>
<g>
</g>
</svg>
