<?xml version="1.0" encoding="iso-8859-1"?>
<!-- Generator: Adobe Illustrator 18.0.0, SVG Export Plug-In . SVG Version: 6.00 Build 0)  -->
<!DOCTYPE svg PUBLIC "-//W3C//DTD SVG 1.1//EN" "http://www.w3.org/Graphics/SVG/1.1/DTD/svg11.dtd">
<svg version="1.1" id="Capa_1" xmlns="http://www.w3.org/2000/svg" xmlns:xlink="http://www.w3.org/1999/xlink" x="0px" y="0px"
	 viewBox="0 0 439.622 439.622" style="enable-background:new 0 0 439.622 439.622;" xml:space="preserve">
<g>
	<path d="M34.042,88.494c-3.905-3.904-10.237-3.904-14.142,0l-16.971,16.97c-3.905,3.905-3.906,10.237,0,14.142
		c3.873,3.874,10.13,3.9,14.042,0.091v37.365c0,5.523,4.477,10,10,10c5.523,0,10-4.477,10-10v-37.364
		c1.94,1.889,4.454,2.838,6.971,2.838c2.559,0,5.119-0.976,7.071-2.929c3.905-3.905,3.905-10.237,0-14.143L34.042,88.494z"/>
	<path d="M36.971,227.598v-37.364c0-5.523-4.477-10-10-10c-5.523,0-10,4.477-10,10v37.364c-3.913-3.809-10.169-3.782-14.042,0.091
		c-3.905,3.905-3.905,10.237,0,14.143l16.971,16.971c1.953,1.953,4.512,2.929,7.071,2.929c2.559,0,5.119-0.976,7.071-2.929
		l16.971-16.971c3.905-3.905,3.905-10.237,0-14.143C47.14,223.816,40.883,223.789,36.971,227.598z"/>
	<path d="M412.821,157.046l-50.033-69.86l-0.029-0.04l-0.029-0.04c-8.253-11.403-21.722-18.211-36.033-18.211
		c-9.59,0-18.744,2.956-26.471,8.548c-4.074,2.948-7.685,6.639-10.641,10.796c-6.999-4.384-15.179-6.811-23.621-6.811
		c-9.39,0-18.385,2.916-26.012,8.435c-4.988,3.61-9.056,7.995-12.14,12.83c-6.013-2.939-12.69-4.534-19.544-4.535
		c-9.409-0.001-18.417,2.92-26.054,8.447c-3.436,2.486-6.454,5.4-9.001,8.655l-7.573-10.479l-12.701-17.573
		c-2.715-3.755-4.225-5.844-5.186-7.121l0.022-0.017c-7.522-10.138-19.506-15.953-32.878-15.954
		c-9.623-0.001-19.201,3.095-26.971,8.717c-9.623,6.963-15.958,17.258-17.839,28.988c-1.88,11.729,0.919,23.488,7.882,33.111
		c0,0,59.881,82.75,93.197,128.789c-2.421-0.351-4.869-0.528-7.289-0.528c-10.954,0-21.54,3.659-29.806,10.303
		c-8.729,7.017-14.53,17.076-16.333,28.325c-3.791,23.644,10.274,45.561,35.033,54.696c5.631,2.329,47.769,18.987,100.758,18.987
		c46.55,0,87.574-12.606,121.931-37.468c40.805-29.528,62.355-63.508,64.055-100.996
		C440.719,210.522,431.489,182.862,412.821,157.046z M363.738,321.834c-35.784,25.895-75.451,33.671-110.206,33.671
		c-52.301,0-93.47-17.618-93.47-17.618c-15.112-5.434-24.978-17.905-22.573-32.9c2.139-13.347,13.371-21.794,26.39-21.794
		c1.607,0,3.242,0.129,4.89,0.393c0,0,19.413,3.112,29.828,4.782c1.378,0.221,2.599,0.32,3.678,0.32c7.536,0,8.155-4.826,6.82-6.671
		c-1.074-1.484-114.92-158.809-114.92-158.809c-7.923-10.949-5.471-26.249,5.479-34.172c4.489-3.249,9.945-4.921,15.244-4.92
		c6.561,0,12.88,2.563,16.818,7.871c0.033,0.031,61.423,84.988,74.366,102.896c0.026,0.038,0.041,0.08,0.068,0.117l5.052,6.981
		c0.779,1.077,1.997,1.65,3.231,1.65c0.81,0,1.628-0.247,2.334-0.758c1.782-1.29,2.182-3.781,0.892-5.564l-29.427-40.664
		c-7.637-10.925-5.131-25.995,5.71-33.839c4.336-3.138,9.354-4.649,14.326-4.648c7.583,0.001,15.061,3.514,19.847,10.127
		l29.75,41.08c0.768,1.061,1.967,1.624,3.183,1.624c0.797,0,1.602-0.242,2.297-0.745c1.755-1.271,2.148-3.724,0.877-5.48
		l-19.946-27.551c-7.214-9.969-2.563-23.935,7.401-31.146c4.329-3.133,9.329-4.639,14.285-4.638c7.581,0,15.055,3.526,19.847,10.147
		l19.308,26.683c0.748,1.032,1.915,1.581,3.098,1.581c0.776,0,1.559-0.236,2.236-0.725c1.708-1.236,1.545-4.463,0.308-6.172
		l-6.674-9.199c-6.56-9.065-1.78-23.115,7.867-30.097c4.417-3.196,9.605-4.751,14.746-4.751c7.604,0,15.103,3.404,19.83,9.936
		l50.052,69.887C421.095,202.594,444.233,263.584,363.738,321.834z"/>
</g>
<g>
</g>
<g>
</g>
<g>
</g>
<g>
</g>
<g>
</g>
<g>
</g>
<g>
</g>
<g>
</g>
<g>
</g>
<g>
</g>
<g>
</g>
<g>
</g>
<g>
</g>
<g>
</g>
<g>
</g>
</svg>
