<?xml version="1.0" encoding="iso-8859-1"?>
<!-- Generator: Adobe Illustrator 18.0.0, SVG Export Plug-In . SVG Version: 6.00 Build 0)  -->
<!DOCTYPE svg PUBLIC "-//W3C//DTD SVG 1.1//EN" "http://www.w3.org/Graphics/SVG/1.1/DTD/svg11.dtd">
<svg version="1.1" id="Capa_1" xmlns="http://www.w3.org/2000/svg" xmlns:xlink="http://www.w3.org/1999/xlink" x="0px" y="0px"
	 viewBox="0 0 381.71 381.71" style="enable-background:new 0 0 381.71 381.71;" xml:space="preserve">
<g>
	<g>
		<path d="M196.844,322.569c-33.084,0-60-26.916-60-60c0-33.084,26.916-60,60-60s60,26.916,60,60
			C256.844,295.653,229.928,322.569,196.844,322.569z M196.844,222.569c-22.056,0-40,17.944-40,40c0,22.056,17.944,40,40,40
			c22.056,0,40-17.944,40-40C236.844,240.513,218.9,222.569,196.844,222.569z"/>
	</g>
	<g>
		<path d="M217.817,272.569h-20.974c-5.523,0-10-4.477-10-10v-22.933c0-5.523,4.477-10,10-10c5.523,0,10,4.477,10,10v12.933h10.974
			c5.523,0,10,4.477,10,10C227.817,268.092,223.34,272.569,217.817,272.569z"/>
	</g>
	<g>
		<path d="M119.176,20c12.903,0,25.227,9.188,25.227,22.045c0.008,0.046-0.067,93.498-0.08,116.489
			c-0.001,0.048-0.014,0.092-0.014,0.14v4.804c0,2.29,1.857,4.146,4.147,4.146c2.289,0,4.146-1.856,4.146-4.146v-1.243
			c0.226-13.868,11.531-25.042,25.454-25.042c14.062,0,25.463,11.4,25.463,25.463l0.02,18.438c0,2.256,1.829,4.084,4.084,4.084
			c2.254,0,4.082-1.828,4.082-4.084l-0.008-1.055c0-12.803,12.44-21.739,25.238-21.739c14.064,0,25.411,11.4,25.411,25.462
			l0.051,18.663c0,2.195,1.779,3.974,3.974,3.974c2.194,0,3.973-1.779,3.973-3.974l-0.014-1.42
			c0-11.644,12.598-20.571,24.989-20.571c14.061,0,25.462,11.4,25.462,25.462l0.082,46.78c0,43.508-16.92,109.033-121.081,109.033
			c-124.139,0-140.69-62.926-138.782-130.73c0.46-16.354,14.519-26.012,26.012-26.012v29.99c0,3.771,2.615,4.21,3.396,4.21
			c0.78,0,3.309-0.428,3.309-4.201c0-3.641,0-189.504,0-189.504C93.714,31.4,105.114,20,119.176,20 M119.176,0
			C94.108,0,73.714,20.395,73.714,45.462v141.641c-16.975,5.442-32.081,20.999-32.709,43.314
			c-0.983,34.96,1.874,79.188,32.956,111.158c26.257,27.006,67.413,40.135,125.818,40.135c52.476,0,91.265-15.409,115.29-45.797
			c9.584-12.123,16.604-26.514,20.866-42.773c3.268-12.467,4.925-26.081,4.925-40.462l-0.082-46.815
			c0-25.033-20.394-45.427-45.462-45.427c-5.942,0-11.966,1.191-17.572,3.399c-7.39-15.107-22.907-25.533-40.811-25.533
			c-6.557,0-12.792,1.293-18.422,3.619c-7.549-14.666-22.85-24.726-40.456-24.726c-4.716,0-9.326,0.715-13.705,2.095
			c0.003-5,0.007-10.159,0.011-15.33l0.031-42.469c0.008-11.593,0.011-16.814-0.034-19.444h0.044
			C164.403,18.861,144.114,0,119.176,0L119.176,0z"/>
	</g>
</g>
<g>
</g>
<g>
</g>
<g>
</g>
<g>
</g>
<g>
</g>
<g>
</g>
<g>
</g>
<g>
</g>
<g>
</g>
<g>
</g>
<g>
</g>
<g>
</g>
<g>
</g>
<g>
</g>
<g>
</g>
</svg>
